# Funebra repaired star — 10 outline vertices, ear-clipped, 2 mm extrusion
# Same radii as starX/starY helper; not a replacement of the 2026-09-23 fan file.
v 0.000000 -30.000000 0.000000
v 8.228994 -11.326238 0.000000
v 28.531695 -9.270510 0.000000
v 13.314791 4.326238 0.000000
v 17.633558 24.270510 0.000000
v 0.000000 14.000000 0.000000
v -17.633558 24.270510 0.000000
v -13.314791 4.326238 0.000000
v -28.531695 -9.270510 0.000000
v -8.228994 -11.326238 0.000000
v 0.000000 -30.000000 2.000000
v 8.228994 -11.326238 2.000000
v 28.531695 -9.270510 2.000000
v 13.314791 4.326238 2.000000
v 17.633558 24.270510 2.000000
v 0.000000 14.000000 2.000000
v -17.633558 24.270510 2.000000
v -13.314791 4.326238 2.000000
v -28.531695 -9.270510 2.000000
v -8.228994 -11.326238 2.000000
f 10 2 1
f 20 11 12
f 10 3 2
f 20 12 13
f 10 4 3
f 20 13 14
f 10 5 4
f 20 14 15
f 10 6 5
f 20 15 16
f 10 7 6
f 20 16 17
f 10 8 7
f 20 17 18
f 8 10 9
f 18 19 20
f 1 2 12
f 1 12 11
f 2 3 13
f 2 13 12
f 3 4 14
f 3 14 13
f 4 5 15
f 4 15 14
f 5 6 16
f 5 16 15
f 6 7 17
f 6 17 16
f 7 8 18
f 7 18 17
f 8 9 19
f 8 19 18
f 9 10 20
f 9 20 19
f 10 1 11
f 10 11 20
