# Funebra™ Founding Demonstration export
# Date (UTC): 2026-09-23T01:02:13Z
# Named formula (published helper usage):
#   Steps: 10*36
#   X(o): starX(o, 5, 150, 70, 360, 36)
#   Y(o): starY(o, 5, 150, 70, 260, 36)
#   Z(o): 0
# Post-process (this test, disclosed):
#   center on origin; scale 0.2 (helper units -> mm);
#   extrude 2.0 mm in +Z to form a closed thin solid.
# Units: millimetre
# Author of question and of this dated file: human-directed Funebra record
# AI used as instrument to write the exporter script, not as author of the star.

v 0.000000 -30.000000 0.000000
v 0.228583 -29.481284 0.000000
v 0.457166 -28.962569 0.000000
v 0.685749 -28.443853 0.000000
v 0.914333 -27.925138 0.000000
v 1.142916 -27.406422 0.000000
v 1.371499 -26.887706 0.000000
v 1.600082 -26.368991 0.000000
v 1.828665 -25.850275 0.000000
v 2.057248 -25.331559 0.000000
v 2.285832 -24.812844 0.000000
v 2.514415 -24.294128 0.000000
v 2.742998 -23.775413 0.000000
v 2.971581 -23.256697 0.000000
v 3.200164 -22.737981 0.000000
v 3.428747 -22.219266 0.000000
v 3.657330 -21.700550 0.000000
v 3.885914 -21.181835 0.000000
v 4.114497 -20.663119 0.000000
v 4.343080 -20.144403 0.000000
v 4.571663 -19.625688 0.000000
v 4.800246 -19.106972 0.000000
v 5.028829 -18.588257 0.000000
v 5.257413 -18.069541 0.000000
v 5.485996 -17.550825 0.000000
v 5.714579 -17.032110 0.000000
v 5.943162 -16.513394 0.000000
v 6.171745 -15.994678 0.000000
v 6.400328 -15.475963 0.000000
v 6.628911 -14.957247 0.000000
v 6.857495 -14.438532 0.000000
v 7.086078 -13.919816 0.000000
v 7.314661 -13.401100 0.000000
v 7.543244 -12.882385 0.000000
v 7.771827 -12.363669 0.000000
v 8.000410 -11.844954 0.000000
v 8.228994 -11.326238 0.000000
v 8.792957 -11.269134 0.000000
v 9.356921 -11.212031 0.000000
v 9.920885 -11.154927 0.000000
v 10.484849 -11.097824 0.000000
v 11.048813 -11.040720 0.000000
v 11.612777 -10.983617 0.000000
v 12.176741 -10.926513 0.000000
v 12.740705 -10.869409 0.000000
v 13.304669 -10.812306 0.000000
v 13.868633 -10.755202 0.000000
v 14.432597 -10.698099 0.000000
v 14.996561 -10.640995 0.000000
v 15.560525 -10.583892 0.000000
v 16.124489 -10.526788 0.000000
v 16.688453 -10.469685 0.000000
v 17.252417 -10.412581 0.000000
v 17.816381 -10.355477 0.000000
v 18.380345 -10.298374 0.000000
v 18.944308 -10.241270 0.000000
v 19.508272 -10.184167 0.000000
v 20.072236 -10.127063 0.000000
v 20.636200 -10.069960 0.000000
v 21.200164 -10.012856 0.000000
v 21.764128 -9.955753 0.000000
v 22.328092 -9.898649 0.000000
v 22.892056 -9.841545 0.000000
v 23.456020 -9.784442 0.000000
v 24.019984 -9.727338 0.000000
v 24.583948 -9.670235 0.000000
v 25.147912 -9.613131 0.000000
v 25.711876 -9.556028 0.000000
v 26.275840 -9.498924 0.000000
v 26.839804 -9.441821 0.000000
v 27.403768 -9.384717 0.000000
v 27.967732 -9.327613 0.000000
v 28.531695 -9.270510 0.000000
v 28.109004 -8.892822 0.000000
v 27.686312 -8.515135 0.000000
v 27.263620 -8.137448 0.000000
v 26.840928 -7.759760 0.000000
v 26.418237 -7.382073 0.000000
v 25.995545 -7.004385 0.000000
v 25.572853 -6.626698 0.000000
v 25.150161 -6.249010 0.000000
v 24.727469 -5.871323 0.000000
v 24.304778 -5.493635 0.000000
v 23.882086 -5.115948 0.000000
v 23.459394 -4.738261 0.000000
v 23.036702 -4.360573 0.000000
v 22.614010 -3.982886 0.000000
v 22.191319 -3.605198 0.000000
v 21.768627 -3.227511 0.000000
v 21.345935 -2.849823 0.000000
v 20.923243 -2.472136 0.000000
v 20.500552 -2.094449 0.000000
v 20.077860 -1.716761 0.000000
v 19.655168 -1.339074 0.000000
v 19.232476 -0.961386 0.000000
v 18.809784 -0.583699 0.000000
v 18.387093 -0.206011 0.000000
v 17.964401 0.171676 0.000000
v 17.541709 0.549364 0.000000
v 17.119017 0.927051 0.000000
v 16.696326 1.304738 0.000000
v 16.273634 1.682426 0.000000
v 15.850942 2.060113 0.000000
v 15.428250 2.437801 0.000000
v 15.005558 2.815488 0.000000
v 14.582867 3.193176 0.000000
v 14.160175 3.570863 0.000000
v 13.737483 3.948550 0.000000
v 13.314791 4.326238 0.000000
v 13.434757 4.880245 0.000000
v 13.554723 5.434253 0.000000
v 13.674688 5.988261 0.000000
v 13.794654 6.542268 0.000000
v 13.914620 7.096276 0.000000
v 14.034586 7.650283 0.000000
v 14.154551 8.204291 0.000000
v 14.274517 8.758298 0.000000
v 14.394483 9.312306 0.000000
v 14.514449 9.866313 0.000000
v 14.634414 10.420321 0.000000
v 14.754380 10.974329 0.000000
v 14.874346 11.528336 0.000000
v 14.994311 12.082344 0.000000
v 15.114277 12.636351 0.000000
v 15.234243 13.190359 0.000000
v 15.354209 13.744366 0.000000
v 15.474174 14.298374 0.000000
v 15.594140 14.852381 0.000000
v 15.714106 15.406389 0.000000
v 15.834072 15.960397 0.000000
v 15.954037 16.514404 0.000000
v 16.074003 17.068412 0.000000
v 16.193969 17.622419 0.000000
v 16.313935 18.176427 0.000000
v 16.433900 18.730434 0.000000
v 16.553866 19.284442 0.000000
v 16.673832 19.838449 0.000000
v 16.793797 20.392457 0.000000
v 16.913763 20.946465 0.000000
v 17.033729 21.500472 0.000000
v 17.153695 22.054480 0.000000
v 17.273660 22.608487 0.000000
v 17.393626 23.162495 0.000000
v 17.513592 23.716502 0.000000
v 17.633558 24.270510 0.000000
v 17.143737 23.985218 0.000000
v 16.653915 23.699926 0.000000
v 16.164094 23.414634 0.000000
v 15.674273 23.129342 0.000000
v 15.184452 22.844050 0.000000
v 14.694631 22.558758 0.000000
v 14.204810 22.273466 0.000000
v 13.714989 21.988174 0.000000
v 13.225168 21.702882 0.000000
v 12.735347 21.417590 0.000000
v 12.245526 21.132298 0.000000
v 11.755705 20.847007 0.000000
v 11.265884 20.561715 0.000000
v 10.776063 20.276423 0.000000
v 10.286242 19.991131 0.000000
v 9.796421 19.705839 0.000000
v 9.306600 19.420547 0.000000
v 8.816779 19.135255 0.000000
v 8.326958 18.849963 0.000000
v 7.837137 18.564671 0.000000
v 7.347316 18.279379 0.000000
v 6.857495 17.994087 0.000000
v 6.367674 17.708795 0.000000
v 5.877853 17.423503 0.000000
v 5.388031 17.138211 0.000000
v 4.898210 16.852919 0.000000
v 4.408389 16.567627 0.000000
v 3.918568 16.282336 0.000000
v 3.428747 15.997044 0.000000
v 2.938926 15.711752 0.000000
v 2.449105 15.426460 0.000000
v 1.959284 15.141168 0.000000
v 1.469463 14.855876 0.000000
v 0.979642 14.570584 0.000000
v 0.489821 14.285292 0.000000
v 0.000000 14.000000 0.000000
v -0.489821 14.285292 0.000000
v -0.979642 14.570584 0.000000
v -1.469463 14.855876 0.000000
v -1.959284 15.141168 0.000000
v -2.449105 15.426460 0.000000
v -2.938926 15.711752 0.000000
v -3.428747 15.997044 0.000000
v -3.918568 16.282336 0.000000
v -4.408389 16.567627 0.000000
v -4.898210 16.852919 0.000000
v -5.388031 17.138211 0.000000
v -5.877853 17.423503 0.000000
v -6.367674 17.708795 0.000000
v -6.857495 17.994087 0.000000
v -7.347316 18.279379 0.000000
v -7.837137 18.564671 0.000000
v -8.326958 18.849963 0.000000
v -8.816779 19.135255 0.000000
v -9.306600 19.420547 0.000000
v -9.796421 19.705839 0.000000
v -10.286242 19.991131 0.000000
v -10.776063 20.276423 0.000000
v -11.265884 20.561715 0.000000
v -11.755705 20.847007 0.000000
v -12.245526 21.132298 0.000000
v -12.735347 21.417590 0.000000
v -13.225168 21.702882 0.000000
v -13.714989 21.988174 0.000000
v -14.204810 22.273466 0.000000
v -14.694631 22.558758 0.000000
v -15.184452 22.844050 0.000000
v -15.674273 23.129342 0.000000
v -16.164094 23.414634 0.000000
v -16.653915 23.699926 0.000000
v -17.143737 23.985218 0.000000
v -17.633558 24.270510 0.000000
v -17.513592 23.716502 0.000000
v -17.393626 23.162495 0.000000
v -17.273660 22.608487 0.000000
v -17.153695 22.054480 0.000000
v -17.033729 21.500472 0.000000
v -16.913763 20.946465 0.000000
v -16.793797 20.392457 0.000000
v -16.673832 19.838449 0.000000
v -16.553866 19.284442 0.000000
v -16.433900 18.730434 0.000000
v -16.313935 18.176427 0.000000
v -16.193969 17.622419 0.000000
v -16.074003 17.068412 0.000000
v -15.954037 16.514404 0.000000
v -15.834072 15.960397 0.000000
v -15.714106 15.406389 0.000000
v -15.594140 14.852381 0.000000
v -15.474174 14.298374 0.000000
v -15.354209 13.744366 0.000000
v -15.234243 13.190359 0.000000
v -15.114277 12.636351 0.000000
v -14.994311 12.082344 0.000000
v -14.874346 11.528336 0.000000
v -14.754380 10.974329 0.000000
v -14.634414 10.420321 0.000000
v -14.514449 9.866313 0.000000
v -14.394483 9.312306 0.000000
v -14.274517 8.758298 0.000000
v -14.154551 8.204291 0.000000
v -14.034586 7.650283 0.000000
v -13.914620 7.096276 0.000000
v -13.794654 6.542268 0.000000
v -13.674688 5.988261 0.000000
v -13.554723 5.434253 0.000000
v -13.434757 4.880245 0.000000
v -13.314791 4.326238 0.000000
v -13.737483 3.948550 0.000000
v -14.160175 3.570863 0.000000
v -14.582867 3.193176 0.000000
v -15.005558 2.815488 0.000000
v -15.428250 2.437801 0.000000
v -15.850942 2.060113 0.000000
v -16.273634 1.682426 0.000000
v -16.696326 1.304738 0.000000
v -17.119017 0.927051 0.000000
v -17.541709 0.549364 0.000000
v -17.964401 0.171676 0.000000
v -18.387093 -0.206011 0.000000
v -18.809784 -0.583699 0.000000
v -19.232476 -0.961386 0.000000
v -19.655168 -1.339074 0.000000
v -20.077860 -1.716761 0.000000
v -20.500552 -2.094449 0.000000
v -20.923243 -2.472136 0.000000
v -21.345935 -2.849823 0.000000
v -21.768627 -3.227511 0.000000
v -22.191319 -3.605198 0.000000
v -22.614010 -3.982886 0.000000
v -23.036702 -4.360573 0.000000
v -23.459394 -4.738261 0.000000
v -23.882086 -5.115948 0.000000
v -24.304778 -5.493635 0.000000
v -24.727469 -5.871323 0.000000
v -25.150161 -6.249010 0.000000
v -25.572853 -6.626698 0.000000
v -25.995545 -7.004385 0.000000
v -26.418237 -7.382073 0.000000
v -26.840928 -7.759760 0.000000
v -27.263620 -8.137448 0.000000
v -27.686312 -8.515135 0.000000
v -28.109004 -8.892822 0.000000
v -28.531695 -9.270510 0.000000
v -27.967732 -9.327613 0.000000
v -27.403768 -9.384717 0.000000
v -26.839804 -9.441821 0.000000
v -26.275840 -9.498924 0.000000
v -25.711876 -9.556028 0.000000
v -25.147912 -9.613131 0.000000
v -24.583948 -9.670235 0.000000
v -24.019984 -9.727338 0.000000
v -23.456020 -9.784442 0.000000
v -22.892056 -9.841545 0.000000
v -22.328092 -9.898649 0.000000
v -21.764128 -9.955753 0.000000
v -21.200164 -10.012856 0.000000
v -20.636200 -10.069960 0.000000
v -20.072236 -10.127063 0.000000
v -19.508272 -10.184167 0.000000
v -18.944308 -10.241270 0.000000
v -18.380345 -10.298374 0.000000
v -17.816381 -10.355477 0.000000
v -17.252417 -10.412581 0.000000
v -16.688453 -10.469685 0.000000
v -16.124489 -10.526788 0.000000
v -15.560525 -10.583892 0.000000
v -14.996561 -10.640995 0.000000
v -14.432597 -10.698099 0.000000
v -13.868633 -10.755202 0.000000
v -13.304669 -10.812306 0.000000
v -12.740705 -10.869409 0.000000
v -12.176741 -10.926513 0.000000
v -11.612777 -10.983617 0.000000
v -11.048813 -11.040720 0.000000
v -10.484849 -11.097824 0.000000
v -9.920885 -11.154927 0.000000
v -9.356921 -11.212031 0.000000
v -8.792957 -11.269134 0.000000
v -8.228994 -11.326238 0.000000
v -8.000410 -11.844954 0.000000
v -7.771827 -12.363669 0.000000
v -7.543244 -12.882385 0.000000
v -7.314661 -13.401100 0.000000
v -7.086078 -13.919816 0.000000
v -6.857495 -14.438532 0.000000
v -6.628911 -14.957247 0.000000
v -6.400328 -15.475963 0.000000
v -6.171745 -15.994678 0.000000
v -5.943162 -16.513394 0.000000
v -5.714579 -17.032110 0.000000
v -5.485996 -17.550825 0.000000
v -5.257413 -18.069541 0.000000
v -5.028829 -18.588257 0.000000
v -4.800246 -19.106972 0.000000
v -4.571663 -19.625688 0.000000
v -4.343080 -20.144403 0.000000
v -4.114497 -20.663119 0.000000
v -3.885914 -21.181835 0.000000
v -3.657330 -21.700550 0.000000
v -3.428747 -22.219266 0.000000
v -3.200164 -22.737981 0.000000
v -2.971581 -23.256697 0.000000
v -2.742998 -23.775413 0.000000
v -2.514415 -24.294128 0.000000
v -2.285832 -24.812844 0.000000
v -2.057248 -25.331559 0.000000
v -1.828665 -25.850275 0.000000
v -1.600082 -26.368991 0.000000
v -1.371499 -26.887706 0.000000
v -1.142916 -27.406422 0.000000
v -0.914333 -27.925138 0.000000
v -0.685749 -28.443853 0.000000
v -0.457166 -28.962569 0.000000
v -0.228583 -29.481284 0.000000
v 0.000000 -30.000000 2.000000
v 0.228583 -29.481284 2.000000
v 0.457166 -28.962569 2.000000
v 0.685749 -28.443853 2.000000
v 0.914333 -27.925138 2.000000
v 1.142916 -27.406422 2.000000
v 1.371499 -26.887706 2.000000
v 1.600082 -26.368991 2.000000
v 1.828665 -25.850275 2.000000
v 2.057248 -25.331559 2.000000
v 2.285832 -24.812844 2.000000
v 2.514415 -24.294128 2.000000
v 2.742998 -23.775413 2.000000
v 2.971581 -23.256697 2.000000
v 3.200164 -22.737981 2.000000
v 3.428747 -22.219266 2.000000
v 3.657330 -21.700550 2.000000
v 3.885914 -21.181835 2.000000
v 4.114497 -20.663119 2.000000
v 4.343080 -20.144403 2.000000
v 4.571663 -19.625688 2.000000
v 4.800246 -19.106972 2.000000
v 5.028829 -18.588257 2.000000
v 5.257413 -18.069541 2.000000
v 5.485996 -17.550825 2.000000
v 5.714579 -17.032110 2.000000
v 5.943162 -16.513394 2.000000
v 6.171745 -15.994678 2.000000
v 6.400328 -15.475963 2.000000
v 6.628911 -14.957247 2.000000
v 6.857495 -14.438532 2.000000
v 7.086078 -13.919816 2.000000
v 7.314661 -13.401100 2.000000
v 7.543244 -12.882385 2.000000
v 7.771827 -12.363669 2.000000
v 8.000410 -11.844954 2.000000
v 8.228994 -11.326238 2.000000
v 8.792957 -11.269134 2.000000
v 9.356921 -11.212031 2.000000
v 9.920885 -11.154927 2.000000
v 10.484849 -11.097824 2.000000
v 11.048813 -11.040720 2.000000
v 11.612777 -10.983617 2.000000
v 12.176741 -10.926513 2.000000
v 12.740705 -10.869409 2.000000
v 13.304669 -10.812306 2.000000
v 13.868633 -10.755202 2.000000
v 14.432597 -10.698099 2.000000
v 14.996561 -10.640995 2.000000
v 15.560525 -10.583892 2.000000
v 16.124489 -10.526788 2.000000
v 16.688453 -10.469685 2.000000
v 17.252417 -10.412581 2.000000
v 17.816381 -10.355477 2.000000
v 18.380345 -10.298374 2.000000
v 18.944308 -10.241270 2.000000
v 19.508272 -10.184167 2.000000
v 20.072236 -10.127063 2.000000
v 20.636200 -10.069960 2.000000
v 21.200164 -10.012856 2.000000
v 21.764128 -9.955753 2.000000
v 22.328092 -9.898649 2.000000
v 22.892056 -9.841545 2.000000
v 23.456020 -9.784442 2.000000
v 24.019984 -9.727338 2.000000
v 24.583948 -9.670235 2.000000
v 25.147912 -9.613131 2.000000
v 25.711876 -9.556028 2.000000
v 26.275840 -9.498924 2.000000
v 26.839804 -9.441821 2.000000
v 27.403768 -9.384717 2.000000
v 27.967732 -9.327613 2.000000
v 28.531695 -9.270510 2.000000
v 28.109004 -8.892822 2.000000
v 27.686312 -8.515135 2.000000
v 27.263620 -8.137448 2.000000
v 26.840928 -7.759760 2.000000
v 26.418237 -7.382073 2.000000
v 25.995545 -7.004385 2.000000
v 25.572853 -6.626698 2.000000
v 25.150161 -6.249010 2.000000
v 24.727469 -5.871323 2.000000
v 24.304778 -5.493635 2.000000
v 23.882086 -5.115948 2.000000
v 23.459394 -4.738261 2.000000
v 23.036702 -4.360573 2.000000
v 22.614010 -3.982886 2.000000
v 22.191319 -3.605198 2.000000
v 21.768627 -3.227511 2.000000
v 21.345935 -2.849823 2.000000
v 20.923243 -2.472136 2.000000
v 20.500552 -2.094449 2.000000
v 20.077860 -1.716761 2.000000
v 19.655168 -1.339074 2.000000
v 19.232476 -0.961386 2.000000
v 18.809784 -0.583699 2.000000
v 18.387093 -0.206011 2.000000
v 17.964401 0.171676 2.000000
v 17.541709 0.549364 2.000000
v 17.119017 0.927051 2.000000
v 16.696326 1.304738 2.000000
v 16.273634 1.682426 2.000000
v 15.850942 2.060113 2.000000
v 15.428250 2.437801 2.000000
v 15.005558 2.815488 2.000000
v 14.582867 3.193176 2.000000
v 14.160175 3.570863 2.000000
v 13.737483 3.948550 2.000000
v 13.314791 4.326238 2.000000
v 13.434757 4.880245 2.000000
v 13.554723 5.434253 2.000000
v 13.674688 5.988261 2.000000
v 13.794654 6.542268 2.000000
v 13.914620 7.096276 2.000000
v 14.034586 7.650283 2.000000
v 14.154551 8.204291 2.000000
v 14.274517 8.758298 2.000000
v 14.394483 9.312306 2.000000
v 14.514449 9.866313 2.000000
v 14.634414 10.420321 2.000000
v 14.754380 10.974329 2.000000
v 14.874346 11.528336 2.000000
v 14.994311 12.082344 2.000000
v 15.114277 12.636351 2.000000
v 15.234243 13.190359 2.000000
v 15.354209 13.744366 2.000000
v 15.474174 14.298374 2.000000
v 15.594140 14.852381 2.000000
v 15.714106 15.406389 2.000000
v 15.834072 15.960397 2.000000
v 15.954037 16.514404 2.000000
v 16.074003 17.068412 2.000000
v 16.193969 17.622419 2.000000
v 16.313935 18.176427 2.000000
v 16.433900 18.730434 2.000000
v 16.553866 19.284442 2.000000
v 16.673832 19.838449 2.000000
v 16.793797 20.392457 2.000000
v 16.913763 20.946465 2.000000
v 17.033729 21.500472 2.000000
v 17.153695 22.054480 2.000000
v 17.273660 22.608487 2.000000
v 17.393626 23.162495 2.000000
v 17.513592 23.716502 2.000000
v 17.633558 24.270510 2.000000
v 17.143737 23.985218 2.000000
v 16.653915 23.699926 2.000000
v 16.164094 23.414634 2.000000
v 15.674273 23.129342 2.000000
v 15.184452 22.844050 2.000000
v 14.694631 22.558758 2.000000
v 14.204810 22.273466 2.000000
v 13.714989 21.988174 2.000000
v 13.225168 21.702882 2.000000
v 12.735347 21.417590 2.000000
v 12.245526 21.132298 2.000000
v 11.755705 20.847007 2.000000
v 11.265884 20.561715 2.000000
v 10.776063 20.276423 2.000000
v 10.286242 19.991131 2.000000
v 9.796421 19.705839 2.000000
v 9.306600 19.420547 2.000000
v 8.816779 19.135255 2.000000
v 8.326958 18.849963 2.000000
v 7.837137 18.564671 2.000000
v 7.347316 18.279379 2.000000
v 6.857495 17.994087 2.000000
v 6.367674 17.708795 2.000000
v 5.877853 17.423503 2.000000
v 5.388031 17.138211 2.000000
v 4.898210 16.852919 2.000000
v 4.408389 16.567627 2.000000
v 3.918568 16.282336 2.000000
v 3.428747 15.997044 2.000000
v 2.938926 15.711752 2.000000
v 2.449105 15.426460 2.000000
v 1.959284 15.141168 2.000000
v 1.469463 14.855876 2.000000
v 0.979642 14.570584 2.000000
v 0.489821 14.285292 2.000000
v 0.000000 14.000000 2.000000
v -0.489821 14.285292 2.000000
v -0.979642 14.570584 2.000000
v -1.469463 14.855876 2.000000
v -1.959284 15.141168 2.000000
v -2.449105 15.426460 2.000000
v -2.938926 15.711752 2.000000
v -3.428747 15.997044 2.000000
v -3.918568 16.282336 2.000000
v -4.408389 16.567627 2.000000
v -4.898210 16.852919 2.000000
v -5.388031 17.138211 2.000000
v -5.877853 17.423503 2.000000
v -6.367674 17.708795 2.000000
v -6.857495 17.994087 2.000000
v -7.347316 18.279379 2.000000
v -7.837137 18.564671 2.000000
v -8.326958 18.849963 2.000000
v -8.816779 19.135255 2.000000
v -9.306600 19.420547 2.000000
v -9.796421 19.705839 2.000000
v -10.286242 19.991131 2.000000
v -10.776063 20.276423 2.000000
v -11.265884 20.561715 2.000000
v -11.755705 20.847007 2.000000
v -12.245526 21.132298 2.000000
v -12.735347 21.417590 2.000000
v -13.225168 21.702882 2.000000
v -13.714989 21.988174 2.000000
v -14.204810 22.273466 2.000000
v -14.694631 22.558758 2.000000
v -15.184452 22.844050 2.000000
v -15.674273 23.129342 2.000000
v -16.164094 23.414634 2.000000
v -16.653915 23.699926 2.000000
v -17.143737 23.985218 2.000000
v -17.633558 24.270510 2.000000
v -17.513592 23.716502 2.000000
v -17.393626 23.162495 2.000000
v -17.273660 22.608487 2.000000
v -17.153695 22.054480 2.000000
v -17.033729 21.500472 2.000000
v -16.913763 20.946465 2.000000
v -16.793797 20.392457 2.000000
v -16.673832 19.838449 2.000000
v -16.553866 19.284442 2.000000
v -16.433900 18.730434 2.000000
v -16.313935 18.176427 2.000000
v -16.193969 17.622419 2.000000
v -16.074003 17.068412 2.000000
v -15.954037 16.514404 2.000000
v -15.834072 15.960397 2.000000
v -15.714106 15.406389 2.000000
v -15.594140 14.852381 2.000000
v -15.474174 14.298374 2.000000
v -15.354209 13.744366 2.000000
v -15.234243 13.190359 2.000000
v -15.114277 12.636351 2.000000
v -14.994311 12.082344 2.000000
v -14.874346 11.528336 2.000000
v -14.754380 10.974329 2.000000
v -14.634414 10.420321 2.000000
v -14.514449 9.866313 2.000000
v -14.394483 9.312306 2.000000
v -14.274517 8.758298 2.000000
v -14.154551 8.204291 2.000000
v -14.034586 7.650283 2.000000
v -13.914620 7.096276 2.000000
v -13.794654 6.542268 2.000000
v -13.674688 5.988261 2.000000
v -13.554723 5.434253 2.000000
v -13.434757 4.880245 2.000000
v -13.314791 4.326238 2.000000
v -13.737483 3.948550 2.000000
v -14.160175 3.570863 2.000000
v -14.582867 3.193176 2.000000
v -15.005558 2.815488 2.000000
v -15.428250 2.437801 2.000000
v -15.850942 2.060113 2.000000
v -16.273634 1.682426 2.000000
v -16.696326 1.304738 2.000000
v -17.119017 0.927051 2.000000
v -17.541709 0.549364 2.000000
v -17.964401 0.171676 2.000000
v -18.387093 -0.206011 2.000000
v -18.809784 -0.583699 2.000000
v -19.232476 -0.961386 2.000000
v -19.655168 -1.339074 2.000000
v -20.077860 -1.716761 2.000000
v -20.500552 -2.094449 2.000000
v -20.923243 -2.472136 2.000000
v -21.345935 -2.849823 2.000000
v -21.768627 -3.227511 2.000000
v -22.191319 -3.605198 2.000000
v -22.614010 -3.982886 2.000000
v -23.036702 -4.360573 2.000000
v -23.459394 -4.738261 2.000000
v -23.882086 -5.115948 2.000000
v -24.304778 -5.493635 2.000000
v -24.727469 -5.871323 2.000000
v -25.150161 -6.249010 2.000000
v -25.572853 -6.626698 2.000000
v -25.995545 -7.004385 2.000000
v -26.418237 -7.382073 2.000000
v -26.840928 -7.759760 2.000000
v -27.263620 -8.137448 2.000000
v -27.686312 -8.515135 2.000000
v -28.109004 -8.892822 2.000000
v -28.531695 -9.270510 2.000000
v -27.967732 -9.327613 2.000000
v -27.403768 -9.384717 2.000000
v -26.839804 -9.441821 2.000000
v -26.275840 -9.498924 2.000000
v -25.711876 -9.556028 2.000000
v -25.147912 -9.613131 2.000000
v -24.583948 -9.670235 2.000000
v -24.019984 -9.727338 2.000000
v -23.456020 -9.784442 2.000000
v -22.892056 -9.841545 2.000000
v -22.328092 -9.898649 2.000000
v -21.764128 -9.955753 2.000000
v -21.200164 -10.012856 2.000000
v -20.636200 -10.069960 2.000000
v -20.072236 -10.127063 2.000000
v -19.508272 -10.184167 2.000000
v -18.944308 -10.241270 2.000000
v -18.380345 -10.298374 2.000000
v -17.816381 -10.355477 2.000000
v -17.252417 -10.412581 2.000000
v -16.688453 -10.469685 2.000000
v -16.124489 -10.526788 2.000000
v -15.560525 -10.583892 2.000000
v -14.996561 -10.640995 2.000000
v -14.432597 -10.698099 2.000000
v -13.868633 -10.755202 2.000000
v -13.304669 -10.812306 2.000000
v -12.740705 -10.869409 2.000000
v -12.176741 -10.926513 2.000000
v -11.612777 -10.983617 2.000000
v -11.048813 -11.040720 2.000000
v -10.484849 -11.097824 2.000000
v -9.920885 -11.154927 2.000000
v -9.356921 -11.212031 2.000000
v -8.792957 -11.269134 2.000000
v -8.228994 -11.326238 2.000000
v -8.000410 -11.844954 2.000000
v -7.771827 -12.363669 2.000000
v -7.543244 -12.882385 2.000000
v -7.314661 -13.401100 2.000000
v -7.086078 -13.919816 2.000000
v -6.857495 -14.438532 2.000000
v -6.628911 -14.957247 2.000000
v -6.400328 -15.475963 2.000000
v -6.171745 -15.994678 2.000000
v -5.943162 -16.513394 2.000000
v -5.714579 -17.032110 2.000000
v -5.485996 -17.550825 2.000000
v -5.257413 -18.069541 2.000000
v -5.028829 -18.588257 2.000000
v -4.800246 -19.106972 2.000000
v -4.571663 -19.625688 2.000000
v -4.343080 -20.144403 2.000000
v -4.114497 -20.663119 2.000000
v -3.885914 -21.181835 2.000000
v -3.657330 -21.700550 2.000000
v -3.428747 -22.219266 2.000000
v -3.200164 -22.737981 2.000000
v -2.971581 -23.256697 2.000000
v -2.742998 -23.775413 2.000000
v -2.514415 -24.294128 2.000000
v -2.285832 -24.812844 2.000000
v -2.057248 -25.331559 2.000000
v -1.828665 -25.850275 2.000000
v -1.600082 -26.368991 2.000000
v -1.371499 -26.887706 2.000000
v -1.142916 -27.406422 2.000000
v -0.914333 -27.925138 2.000000
v -0.685749 -28.443853 2.000000
v -0.457166 -28.962569 2.000000
v -0.228583 -29.481284 2.000000
g founding_star_2026_09_23
f 1 3 2
f 1 4 3
f 1 5 4
f 1 6 5
f 1 7 6
f 1 8 7
f 1 9 8
f 1 10 9
f 1 11 10
f 1 12 11
f 1 13 12
f 1 14 13
f 1 15 14
f 1 16 15
f 1 17 16
f 1 18 17
f 1 19 18
f 1 20 19
f 1 21 20
f 1 22 21
f 1 23 22
f 1 24 23
f 1 25 24
f 1 26 25
f 1 27 26
f 1 28 27
f 1 29 28
f 1 30 29
f 1 31 30
f 1 32 31
f 1 33 32
f 1 34 33
f 1 35 34
f 1 36 35
f 1 37 36
f 1 38 37
f 1 39 38
f 1 40 39
f 1 41 40
f 1 42 41
f 1 43 42
f 1 44 43
f 1 45 44
f 1 46 45
f 1 47 46
f 1 48 47
f 1 49 48
f 1 50 49
f 1 51 50
f 1 52 51
f 1 53 52
f 1 54 53
f 1 55 54
f 1 56 55
f 1 57 56
f 1 58 57
f 1 59 58
f 1 60 59
f 1 61 60
f 1 62 61
f 1 63 62
f 1 64 63
f 1 65 64
f 1 66 65
f 1 67 66
f 1 68 67
f 1 69 68
f 1 70 69
f 1 71 70
f 1 72 71
f 1 73 72
f 1 74 73
f 1 75 74
f 1 76 75
f 1 77 76
f 1 78 77
f 1 79 78
f 1 80 79
f 1 81 80
f 1 82 81
f 1 83 82
f 1 84 83
f 1 85 84
f 1 86 85
f 1 87 86
f 1 88 87
f 1 89 88
f 1 90 89
f 1 91 90
f 1 92 91
f 1 93 92
f 1 94 93
f 1 95 94
f 1 96 95
f 1 97 96
f 1 98 97
f 1 99 98
f 1 100 99
f 1 101 100
f 1 102 101
f 1 103 102
f 1 104 103
f 1 105 104
f 1 106 105
f 1 107 106
f 1 108 107
f 1 109 108
f 1 110 109
f 1 111 110
f 1 112 111
f 1 113 112
f 1 114 113
f 1 115 114
f 1 116 115
f 1 117 116
f 1 118 117
f 1 119 118
f 1 120 119
f 1 121 120
f 1 122 121
f 1 123 122
f 1 124 123
f 1 125 124
f 1 126 125
f 1 127 126
f 1 128 127
f 1 129 128
f 1 130 129
f 1 131 130
f 1 132 131
f 1 133 132
f 1 134 133
f 1 135 134
f 1 136 135
f 1 137 136
f 1 138 137
f 1 139 138
f 1 140 139
f 1 141 140
f 1 142 141
f 1 143 142
f 1 144 143
f 1 145 144
f 1 146 145
f 1 147 146
f 1 148 147
f 1 149 148
f 1 150 149
f 1 151 150
f 1 152 151
f 1 153 152
f 1 154 153
f 1 155 154
f 1 156 155
f 1 157 156
f 1 158 157
f 1 159 158
f 1 160 159
f 1 161 160
f 1 162 161
f 1 163 162
f 1 164 163
f 1 165 164
f 1 166 165
f 1 167 166
f 1 168 167
f 1 169 168
f 1 170 169
f 1 171 170
f 1 172 171
f 1 173 172
f 1 174 173
f 1 175 174
f 1 176 175
f 1 177 176
f 1 178 177
f 1 179 178
f 1 180 179
f 1 181 180
f 1 182 181
f 1 183 182
f 1 184 183
f 1 185 184
f 1 186 185
f 1 187 186
f 1 188 187
f 1 189 188
f 1 190 189
f 1 191 190
f 1 192 191
f 1 193 192
f 1 194 193
f 1 195 194
f 1 196 195
f 1 197 196
f 1 198 197
f 1 199 198
f 1 200 199
f 1 201 200
f 1 202 201
f 1 203 202
f 1 204 203
f 1 205 204
f 1 206 205
f 1 207 206
f 1 208 207
f 1 209 208
f 1 210 209
f 1 211 210
f 1 212 211
f 1 213 212
f 1 214 213
f 1 215 214
f 1 216 215
f 1 217 216
f 1 218 217
f 1 219 218
f 1 220 219
f 1 221 220
f 1 222 221
f 1 223 222
f 1 224 223
f 1 225 224
f 1 226 225
f 1 227 226
f 1 228 227
f 1 229 228
f 1 230 229
f 1 231 230
f 1 232 231
f 1 233 232
f 1 234 233
f 1 235 234
f 1 236 235
f 1 237 236
f 1 238 237
f 1 239 238
f 1 240 239
f 1 241 240
f 1 242 241
f 1 243 242
f 1 244 243
f 1 245 244
f 1 246 245
f 1 247 246
f 1 248 247
f 1 249 248
f 1 250 249
f 1 251 250
f 1 252 251
f 1 253 252
f 1 254 253
f 1 255 254
f 1 256 255
f 1 257 256
f 1 258 257
f 1 259 258
f 1 260 259
f 1 261 260
f 1 262 261
f 1 263 262
f 1 264 263
f 1 265 264
f 1 266 265
f 1 267 266
f 1 268 267
f 1 269 268
f 1 270 269
f 1 271 270
f 1 272 271
f 1 273 272
f 1 274 273
f 1 275 274
f 1 276 275
f 1 277 276
f 1 278 277
f 1 279 278
f 1 280 279
f 1 281 280
f 1 282 281
f 1 283 282
f 1 284 283
f 1 285 284
f 1 286 285
f 1 287 286
f 1 288 287
f 1 289 288
f 1 290 289
f 1 291 290
f 1 292 291
f 1 293 292
f 1 294 293
f 1 295 294
f 1 296 295
f 1 297 296
f 1 298 297
f 1 299 298
f 1 300 299
f 1 301 300
f 1 302 301
f 1 303 302
f 1 304 303
f 1 305 304
f 1 306 305
f 1 307 306
f 1 308 307
f 1 309 308
f 1 310 309
f 1 311 310
f 1 312 311
f 1 313 312
f 1 314 313
f 1 315 314
f 1 316 315
f 1 317 316
f 1 318 317
f 1 319 318
f 1 320 319
f 1 321 320
f 1 322 321
f 1 323 322
f 1 324 323
f 1 325 324
f 1 326 325
f 1 327 326
f 1 328 327
f 1 329 328
f 1 330 329
f 1 331 330
f 1 332 331
f 1 333 332
f 1 334 333
f 1 335 334
f 1 336 335
f 1 337 336
f 1 338 337
f 1 339 338
f 1 340 339
f 1 341 340
f 1 342 341
f 1 343 342
f 1 344 343
f 1 345 344
f 1 346 345
f 1 347 346
f 1 348 347
f 1 349 348
f 1 350 349
f 1 351 350
f 1 352 351
f 1 353 352
f 1 354 353
f 1 355 354
f 1 356 355
f 1 357 356
f 1 358 357
f 1 359 358
f 1 360 359
f 361 362 363
f 361 363 364
f 361 364 365
f 361 365 366
f 361 366 367
f 361 367 368
f 361 368 369
f 361 369 370
f 361 370 371
f 361 371 372
f 361 372 373
f 361 373 374
f 361 374 375
f 361 375 376
f 361 376 377
f 361 377 378
f 361 378 379
f 361 379 380
f 361 380 381
f 361 381 382
f 361 382 383
f 361 383 384
f 361 384 385
f 361 385 386
f 361 386 387
f 361 387 388
f 361 388 389
f 361 389 390
f 361 390 391
f 361 391 392
f 361 392 393
f 361 393 394
f 361 394 395
f 361 395 396
f 361 396 397
f 361 397 398
f 361 398 399
f 361 399 400
f 361 400 401
f 361 401 402
f 361 402 403
f 361 403 404
f 361 404 405
f 361 405 406
f 361 406 407
f 361 407 408
f 361 408 409
f 361 409 410
f 361 410 411
f 361 411 412
f 361 412 413
f 361 413 414
f 361 414 415
f 361 415 416
f 361 416 417
f 361 417 418
f 361 418 419
f 361 419 420
f 361 420 421
f 361 421 422
f 361 422 423
f 361 423 424
f 361 424 425
f 361 425 426
f 361 426 427
f 361 427 428
f 361 428 429
f 361 429 430
f 361 430 431
f 361 431 432
f 361 432 433
f 361 433 434
f 361 434 435
f 361 435 436
f 361 436 437
f 361 437 438
f 361 438 439
f 361 439 440
f 361 440 441
f 361 441 442
f 361 442 443
f 361 443 444
f 361 444 445
f 361 445 446
f 361 446 447
f 361 447 448
f 361 448 449
f 361 449 450
f 361 450 451
f 361 451 452
f 361 452 453
f 361 453 454
f 361 454 455
f 361 455 456
f 361 456 457
f 361 457 458
f 361 458 459
f 361 459 460
f 361 460 461
f 361 461 462
f 361 462 463
f 361 463 464
f 361 464 465
f 361 465 466
f 361 466 467
f 361 467 468
f 361 468 469
f 361 469 470
f 361 470 471
f 361 471 472
f 361 472 473
f 361 473 474
f 361 474 475
f 361 475 476
f 361 476 477
f 361 477 478
f 361 478 479
f 361 479 480
f 361 480 481
f 361 481 482
f 361 482 483
f 361 483 484
f 361 484 485
f 361 485 486
f 361 486 487
f 361 487 488
f 361 488 489
f 361 489 490
f 361 490 491
f 361 491 492
f 361 492 493
f 361 493 494
f 361 494 495
f 361 495 496
f 361 496 497
f 361 497 498
f 361 498 499
f 361 499 500
f 361 500 501
f 361 501 502
f 361 502 503
f 361 503 504
f 361 504 505
f 361 505 506
f 361 506 507
f 361 507 508
f 361 508 509
f 361 509 510
f 361 510 511
f 361 511 512
f 361 512 513
f 361 513 514
f 361 514 515
f 361 515 516
f 361 516 517
f 361 517 518
f 361 518 519
f 361 519 520
f 361 520 521
f 361 521 522
f 361 522 523
f 361 523 524
f 361 524 525
f 361 525 526
f 361 526 527
f 361 527 528
f 361 528 529
f 361 529 530
f 361 530 531
f 361 531 532
f 361 532 533
f 361 533 534
f 361 534 535
f 361 535 536
f 361 536 537
f 361 537 538
f 361 538 539
f 361 539 540
f 361 540 541
f 361 541 542
f 361 542 543
f 361 543 544
f 361 544 545
f 361 545 546
f 361 546 547
f 361 547 548
f 361 548 549
f 361 549 550
f 361 550 551
f 361 551 552
f 361 552 553
f 361 553 554
f 361 554 555
f 361 555 556
f 361 556 557
f 361 557 558
f 361 558 559
f 361 559 560
f 361 560 561
f 361 561 562
f 361 562 563
f 361 563 564
f 361 564 565
f 361 565 566
f 361 566 567
f 361 567 568
f 361 568 569
f 361 569 570
f 361 570 571
f 361 571 572
f 361 572 573
f 361 573 574
f 361 574 575
f 361 575 576
f 361 576 577
f 361 577 578
f 361 578 579
f 361 579 580
f 361 580 581
f 361 581 582
f 361 582 583
f 361 583 584
f 361 584 585
f 361 585 586
f 361 586 587
f 361 587 588
f 361 588 589
f 361 589 590
f 361 590 591
f 361 591 592
f 361 592 593
f 361 593 594
f 361 594 595
f 361 595 596
f 361 596 597
f 361 597 598
f 361 598 599
f 361 599 600
f 361 600 601
f 361 601 602
f 361 602 603
f 361 603 604
f 361 604 605
f 361 605 606
f 361 606 607
f 361 607 608
f 361 608 609
f 361 609 610
f 361 610 611
f 361 611 612
f 361 612 613
f 361 613 614
f 361 614 615
f 361 615 616
f 361 616 617
f 361 617 618
f 361 618 619
f 361 619 620
f 361 620 621
f 361 621 622
f 361 622 623
f 361 623 624
f 361 624 625
f 361 625 626
f 361 626 627
f 361 627 628
f 361 628 629
f 361 629 630
f 361 630 631
f 361 631 632
f 361 632 633
f 361 633 634
f 361 634 635
f 361 635 636
f 361 636 637
f 361 637 638
f 361 638 639
f 361 639 640
f 361 640 641
f 361 641 642
f 361 642 643
f 361 643 644
f 361 644 645
f 361 645 646
f 361 646 647
f 361 647 648
f 361 648 649
f 361 649 650
f 361 650 651
f 361 651 652
f 361 652 653
f 361 653 654
f 361 654 655
f 361 655 656
f 361 656 657
f 361 657 658
f 361 658 659
f 361 659 660
f 361 660 661
f 361 661 662
f 361 662 663
f 361 663 664
f 361 664 665
f 361 665 666
f 361 666 667
f 361 667 668
f 361 668 669
f 361 669 670
f 361 670 671
f 361 671 672
f 361 672 673
f 361 673 674
f 361 674 675
f 361 675 676
f 361 676 677
f 361 677 678
f 361 678 679
f 361 679 680
f 361 680 681
f 361 681 682
f 361 682 683
f 361 683 684
f 361 684 685
f 361 685 686
f 361 686 687
f 361 687 688
f 361 688 689
f 361 689 690
f 361 690 691
f 361 691 692
f 361 692 693
f 361 693 694
f 361 694 695
f 361 695 696
f 361 696 697
f 361 697 698
f 361 698 699
f 361 699 700
f 361 700 701
f 361 701 702
f 361 702 703
f 361 703 704
f 361 704 705
f 361 705 706
f 361 706 707
f 361 707 708
f 361 708 709
f 361 709 710
f 361 710 711
f 361 711 712
f 361 712 713
f 361 713 714
f 361 714 715
f 361 715 716
f 361 716 717
f 361 717 718
f 361 718 719
f 361 719 720
f 1 2 362
f 1 362 361
f 2 3 363
f 2 363 362
f 3 4 364
f 3 364 363
f 4 5 365
f 4 365 364
f 5 6 366
f 5 366 365
f 6 7 367
f 6 367 366
f 7 8 368
f 7 368 367
f 8 9 369
f 8 369 368
f 9 10 370
f 9 370 369
f 10 11 371
f 10 371 370
f 11 12 372
f 11 372 371
f 12 13 373
f 12 373 372
f 13 14 374
f 13 374 373
f 14 15 375
f 14 375 374
f 15 16 376
f 15 376 375
f 16 17 377
f 16 377 376
f 17 18 378
f 17 378 377
f 18 19 379
f 18 379 378
f 19 20 380
f 19 380 379
f 20 21 381
f 20 381 380
f 21 22 382
f 21 382 381
f 22 23 383
f 22 383 382
f 23 24 384
f 23 384 383
f 24 25 385
f 24 385 384
f 25 26 386
f 25 386 385
f 26 27 387
f 26 387 386
f 27 28 388
f 27 388 387
f 28 29 389
f 28 389 388
f 29 30 390
f 29 390 389
f 30 31 391
f 30 391 390
f 31 32 392
f 31 392 391
f 32 33 393
f 32 393 392
f 33 34 394
f 33 394 393
f 34 35 395
f 34 395 394
f 35 36 396
f 35 396 395
f 36 37 397
f 36 397 396
f 37 38 398
f 37 398 397
f 38 39 399
f 38 399 398
f 39 40 400
f 39 400 399
f 40 41 401
f 40 401 400
f 41 42 402
f 41 402 401
f 42 43 403
f 42 403 402
f 43 44 404
f 43 404 403
f 44 45 405
f 44 405 404
f 45 46 406
f 45 406 405
f 46 47 407
f 46 407 406
f 47 48 408
f 47 408 407
f 48 49 409
f 48 409 408
f 49 50 410
f 49 410 409
f 50 51 411
f 50 411 410
f 51 52 412
f 51 412 411
f 52 53 413
f 52 413 412
f 53 54 414
f 53 414 413
f 54 55 415
f 54 415 414
f 55 56 416
f 55 416 415
f 56 57 417
f 56 417 416
f 57 58 418
f 57 418 417
f 58 59 419
f 58 419 418
f 59 60 420
f 59 420 419
f 60 61 421
f 60 421 420
f 61 62 422
f 61 422 421
f 62 63 423
f 62 423 422
f 63 64 424
f 63 424 423
f 64 65 425
f 64 425 424
f 65 66 426
f 65 426 425
f 66 67 427
f 66 427 426
f 67 68 428
f 67 428 427
f 68 69 429
f 68 429 428
f 69 70 430
f 69 430 429
f 70 71 431
f 70 431 430
f 71 72 432
f 71 432 431
f 72 73 433
f 72 433 432
f 73 74 434
f 73 434 433
f 74 75 435
f 74 435 434
f 75 76 436
f 75 436 435
f 76 77 437
f 76 437 436
f 77 78 438
f 77 438 437
f 78 79 439
f 78 439 438
f 79 80 440
f 79 440 439
f 80 81 441
f 80 441 440
f 81 82 442
f 81 442 441
f 82 83 443
f 82 443 442
f 83 84 444
f 83 444 443
f 84 85 445
f 84 445 444
f 85 86 446
f 85 446 445
f 86 87 447
f 86 447 446
f 87 88 448
f 87 448 447
f 88 89 449
f 88 449 448
f 89 90 450
f 89 450 449
f 90 91 451
f 90 451 450
f 91 92 452
f 91 452 451
f 92 93 453
f 92 453 452
f 93 94 454
f 93 454 453
f 94 95 455
f 94 455 454
f 95 96 456
f 95 456 455
f 96 97 457
f 96 457 456
f 97 98 458
f 97 458 457
f 98 99 459
f 98 459 458
f 99 100 460
f 99 460 459
f 100 101 461
f 100 461 460
f 101 102 462
f 101 462 461
f 102 103 463
f 102 463 462
f 103 104 464
f 103 464 463
f 104 105 465
f 104 465 464
f 105 106 466
f 105 466 465
f 106 107 467
f 106 467 466
f 107 108 468
f 107 468 467
f 108 109 469
f 108 469 468
f 109 110 470
f 109 470 469
f 110 111 471
f 110 471 470
f 111 112 472
f 111 472 471
f 112 113 473
f 112 473 472
f 113 114 474
f 113 474 473
f 114 115 475
f 114 475 474
f 115 116 476
f 115 476 475
f 116 117 477
f 116 477 476
f 117 118 478
f 117 478 477
f 118 119 479
f 118 479 478
f 119 120 480
f 119 480 479
f 120 121 481
f 120 481 480
f 121 122 482
f 121 482 481
f 122 123 483
f 122 483 482
f 123 124 484
f 123 484 483
f 124 125 485
f 124 485 484
f 125 126 486
f 125 486 485
f 126 127 487
f 126 487 486
f 127 128 488
f 127 488 487
f 128 129 489
f 128 489 488
f 129 130 490
f 129 490 489
f 130 131 491
f 130 491 490
f 131 132 492
f 131 492 491
f 132 133 493
f 132 493 492
f 133 134 494
f 133 494 493
f 134 135 495
f 134 495 494
f 135 136 496
f 135 496 495
f 136 137 497
f 136 497 496
f 137 138 498
f 137 498 497
f 138 139 499
f 138 499 498
f 139 140 500
f 139 500 499
f 140 141 501
f 140 501 500
f 141 142 502
f 141 502 501
f 142 143 503
f 142 503 502
f 143 144 504
f 143 504 503
f 144 145 505
f 144 505 504
f 145 146 506
f 145 506 505
f 146 147 507
f 146 507 506
f 147 148 508
f 147 508 507
f 148 149 509
f 148 509 508
f 149 150 510
f 149 510 509
f 150 151 511
f 150 511 510
f 151 152 512
f 151 512 511
f 152 153 513
f 152 513 512
f 153 154 514
f 153 514 513
f 154 155 515
f 154 515 514
f 155 156 516
f 155 516 515
f 156 157 517
f 156 517 516
f 157 158 518
f 157 518 517
f 158 159 519
f 158 519 518
f 159 160 520
f 159 520 519
f 160 161 521
f 160 521 520
f 161 162 522
f 161 522 521
f 162 163 523
f 162 523 522
f 163 164 524
f 163 524 523
f 164 165 525
f 164 525 524
f 165 166 526
f 165 526 525
f 166 167 527
f 166 527 526
f 167 168 528
f 167 528 527
f 168 169 529
f 168 529 528
f 169 170 530
f 169 530 529
f 170 171 531
f 170 531 530
f 171 172 532
f 171 532 531
f 172 173 533
f 172 533 532
f 173 174 534
f 173 534 533
f 174 175 535
f 174 535 534
f 175 176 536
f 175 536 535
f 176 177 537
f 176 537 536
f 177 178 538
f 177 538 537
f 178 179 539
f 178 539 538
f 179 180 540
f 179 540 539
f 180 181 541
f 180 541 540
f 181 182 542
f 181 542 541
f 182 183 543
f 182 543 542
f 183 184 544
f 183 544 543
f 184 185 545
f 184 545 544
f 185 186 546
f 185 546 545
f 186 187 547
f 186 547 546
f 187 188 548
f 187 548 547
f 188 189 549
f 188 549 548
f 189 190 550
f 189 550 549
f 190 191 551
f 190 551 550
f 191 192 552
f 191 552 551
f 192 193 553
f 192 553 552
f 193 194 554
f 193 554 553
f 194 195 555
f 194 555 554
f 195 196 556
f 195 556 555
f 196 197 557
f 196 557 556
f 197 198 558
f 197 558 557
f 198 199 559
f 198 559 558
f 199 200 560
f 199 560 559
f 200 201 561
f 200 561 560
f 201 202 562
f 201 562 561
f 202 203 563
f 202 563 562
f 203 204 564
f 203 564 563
f 204 205 565
f 204 565 564
f 205 206 566
f 205 566 565
f 206 207 567
f 206 567 566
f 207 208 568
f 207 568 567
f 208 209 569
f 208 569 568
f 209 210 570
f 209 570 569
f 210 211 571
f 210 571 570
f 211 212 572
f 211 572 571
f 212 213 573
f 212 573 572
f 213 214 574
f 213 574 573
f 214 215 575
f 214 575 574
f 215 216 576
f 215 576 575
f 216 217 577
f 216 577 576
f 217 218 578
f 217 578 577
f 218 219 579
f 218 579 578
f 219 220 580
f 219 580 579
f 220 221 581
f 220 581 580
f 221 222 582
f 221 582 581
f 222 223 583
f 222 583 582
f 223 224 584
f 223 584 583
f 224 225 585
f 224 585 584
f 225 226 586
f 225 586 585
f 226 227 587
f 226 587 586
f 227 228 588
f 227 588 587
f 228 229 589
f 228 589 588
f 229 230 590
f 229 590 589
f 230 231 591
f 230 591 590
f 231 232 592
f 231 592 591
f 232 233 593
f 232 593 592
f 233 234 594
f 233 594 593
f 234 235 595
f 234 595 594
f 235 236 596
f 235 596 595
f 236 237 597
f 236 597 596
f 237 238 598
f 237 598 597
f 238 239 599
f 238 599 598
f 239 240 600
f 239 600 599
f 240 241 601
f 240 601 600
f 241 242 602
f 241 602 601
f 242 243 603
f 242 603 602
f 243 244 604
f 243 604 603
f 244 245 605
f 244 605 604
f 245 246 606
f 245 606 605
f 246 247 607
f 246 607 606
f 247 248 608
f 247 608 607
f 248 249 609
f 248 609 608
f 249 250 610
f 249 610 609
f 250 251 611
f 250 611 610
f 251 252 612
f 251 612 611
f 252 253 613
f 252 613 612
f 253 254 614
f 253 614 613
f 254 255 615
f 254 615 614
f 255 256 616
f 255 616 615
f 256 257 617
f 256 617 616
f 257 258 618
f 257 618 617
f 258 259 619
f 258 619 618
f 259 260 620
f 259 620 619
f 260 261 621
f 260 621 620
f 261 262 622
f 261 622 621
f 262 263 623
f 262 623 622
f 263 264 624
f 263 624 623
f 264 265 625
f 264 625 624
f 265 266 626
f 265 626 625
f 266 267 627
f 266 627 626
f 267 268 628
f 267 628 627
f 268 269 629
f 268 629 628
f 269 270 630
f 269 630 629
f 270 271 631
f 270 631 630
f 271 272 632
f 271 632 631
f 272 273 633
f 272 633 632
f 273 274 634
f 273 634 633
f 274 275 635
f 274 635 634
f 275 276 636
f 275 636 635
f 276 277 637
f 276 637 636
f 277 278 638
f 277 638 637
f 278 279 639
f 278 639 638
f 279 280 640
f 279 640 639
f 280 281 641
f 280 641 640
f 281 282 642
f 281 642 641
f 282 283 643
f 282 643 642
f 283 284 644
f 283 644 643
f 284 285 645
f 284 645 644
f 285 286 646
f 285 646 645
f 286 287 647
f 286 647 646
f 287 288 648
f 287 648 647
f 288 289 649
f 288 649 648
f 289 290 650
f 289 650 649
f 290 291 651
f 290 651 650
f 291 292 652
f 291 652 651
f 292 293 653
f 292 653 652
f 293 294 654
f 293 654 653
f 294 295 655
f 294 655 654
f 295 296 656
f 295 656 655
f 296 297 657
f 296 657 656
f 297 298 658
f 297 658 657
f 298 299 659
f 298 659 658
f 299 300 660
f 299 660 659
f 300 301 661
f 300 661 660
f 301 302 662
f 301 662 661
f 302 303 663
f 302 663 662
f 303 304 664
f 303 664 663
f 304 305 665
f 304 665 664
f 305 306 666
f 305 666 665
f 306 307 667
f 306 667 666
f 307 308 668
f 307 668 667
f 308 309 669
f 308 669 668
f 309 310 670
f 309 670 669
f 310 311 671
f 310 671 670
f 311 312 672
f 311 672 671
f 312 313 673
f 312 673 672
f 313 314 674
f 313 674 673
f 314 315 675
f 314 675 674
f 315 316 676
f 315 676 675
f 316 317 677
f 316 677 676
f 317 318 678
f 317 678 677
f 318 319 679
f 318 679 678
f 319 320 680
f 319 680 679
f 320 321 681
f 320 681 680
f 321 322 682
f 321 682 681
f 322 323 683
f 322 683 682
f 323 324 684
f 323 684 683
f 324 325 685
f 324 685 684
f 325 326 686
f 325 686 685
f 326 327 687
f 326 687 686
f 327 328 688
f 327 688 687
f 328 329 689
f 328 689 688
f 329 330 690
f 329 690 689
f 330 331 691
f 330 691 690
f 331 332 692
f 331 692 691
f 332 333 693
f 332 693 692
f 333 334 694
f 333 694 693
f 334 335 695
f 334 695 694
f 335 336 696
f 335 696 695
f 336 337 697
f 336 697 696
f 337 338 698
f 337 698 697
f 338 339 699
f 338 699 698
f 339 340 700
f 339 700 699
f 340 341 701
f 340 701 700
f 341 342 702
f 341 702 701
f 342 343 703
f 342 703 702
f 343 344 704
f 343 704 703
f 344 345 705
f 344 705 704
f 345 346 706
f 345 706 705
f 346 347 707
f 346 707 706
f 347 348 708
f 347 708 707
f 348 349 709
f 348 709 708
f 349 350 710
f 349 710 709
f 350 351 711
f 350 711 710
f 351 352 712
f 351 712 711
f 352 353 713
f 352 713 712
f 353 354 714
f 353 714 713
f 354 355 715
f 354 715 714
f 355 356 716
f 355 716 715
f 356 357 717
f 356 717 716
f 357 358 718
f 357 718 717
f 358 359 719
f 358 719 718
f 359 360 720
f 359 720 719
f 360 1 361
f 360 361 720
